<svg id="visual" viewBox="0 0 900 600" width="900" height="600" xmlns="http://www.w3.org/2000/svg" xmlns:xlink="http://www.w3.org/1999/xlink" version="1.1"><path d="M0 432L21.5 435.7C43 439.3 86 446.7 128.8 455C171.7 463.3 214.3 472.7 257.2 475.2C300 477.7 343 473.3 385.8 461.3C428.7 449.3 471.3 429.7 514.2 416.3C557 403 600 396 642.8 394.7C685.7 393.3 728.3 397.7 771.2 400.2C814 402.7 857 403.3 878.5 403.7L900 404L900 601L878.5 601C857 601 814 601 771.2 601C728.3 601 685.7 601 642.8 601C600 601 557 601 514.2 601C471.3 601 428.7 601 385.8 601C343 601 300 601 257.2 601C214.3 601 171.7 601 128.8 601C86 601 43 601 21.5 601L0 601Z" fill="#E62872" stroke-linecap="round" stroke-linejoin="miter"></path></svg>