<svg xmlns="http://www.w3.org/2000/svg" xmlns:xlink="http://www.w3.org/1999/xlink" width="500" zoomAndPan="magnify" viewBox="0 0 375 374.999991" height="500" preserveAspectRatio="xMidYMid meet" version="1.0"><defs><clipPath id="4dea644cb6"><path d="M 33.816406 32.167969 L 341.179688 32.167969 L 341.179688 343 L 33.816406 343 Z M 33.816406 32.167969 " clip-rule="nonzero"/></clipPath><clipPath id="d38d04a479"><path d="M 187.5 32.167969 C 102.625 32.167969 33.816406 101.710938 33.816406 187.5 C 33.816406 273.289062 102.625 342.832031 187.5 342.832031 C 272.375 342.832031 341.179688 273.289062 341.179688 187.5 C 341.179688 101.710938 272.375 32.167969 187.5 32.167969 Z M 187.5 32.167969 " clip-rule="nonzero"/></clipPath><clipPath id="2413fe209d"><path d="M 33.816406 32.167969 L 341.316406 32.167969 L 341.316406 342.667969 L 33.816406 342.667969 Z M 33.816406 32.167969 " clip-rule="nonzero"/></clipPath><clipPath id="8302d52ccd"><path d="M 187.496094 32.167969 C 102.625 32.167969 33.816406 101.710938 33.816406 187.5 C 33.816406 273.285156 102.625 342.828125 187.496094 342.828125 C 272.371094 342.828125 341.175781 273.285156 341.175781 187.5 C 341.175781 101.710938 272.371094 32.167969 187.496094 32.167969 Z M 187.496094 32.167969 " clip-rule="nonzero"/></clipPath><clipPath id="511dc2c79b"><path d="M 85.824219 85.824219 L 289.074219 85.824219 L 289.074219 289.074219 L 85.824219 289.074219 Z M 85.824219 85.824219 " clip-rule="nonzero"/></clipPath></defs><g clip-path="url(#4dea644cb6)"><g clip-path="url(#d38d04a479)"><path fill="#ffffff" d="M 33.816406 32.167969 L 341.179688 32.167969 L 341.179688 343.132812 L 33.816406 343.132812 Z M 33.816406 32.167969 " fill-opacity="1" fill-rule="nonzero"/></g></g><g clip-path="url(#2413fe209d)"><g clip-path="url(#8302d52ccd)"><path stroke-linecap="butt" transform="matrix(0.75, 0, 0, 0.75, 33.818348, 32.166264)" fill="none" stroke-linejoin="miter" d="M 204.903687 0.00227326 C 91.742214 0.00227326 -0.00258937 92.726244 -0.00258937 207.111675 C -0.00258937 321.491898 91.742214 414.215869 204.903687 414.215869 C 318.070369 414.215869 409.809964 321.491898 409.809964 207.111675 C 409.809964 92.726244 318.070369 0.00227326 204.903687 0.00227326 Z M 204.903687 0.00227326 " stroke="#d9d9d9" stroke-width="6" stroke-opacity="1" stroke-miterlimit="4"/></g></g><g clip-path="url(#511dc2c79b)"><path fill="#f03c2e" d="M 285.238281 178.398438 L 196.5 89.660156 C 195.894531 89.054688 195.234375 88.511719 194.519531 88.035156 C 193.804688 87.554688 193.050781 87.152344 192.253906 86.824219 C 191.460938 86.496094 190.644531 86.246094 189.800781 86.078125 C 188.957031 85.910156 188.105469 85.828125 187.246094 85.828125 C 186.386719 85.828125 185.535156 85.910156 184.695312 86.078125 C 183.851562 86.246094 183.03125 86.496094 182.238281 86.824219 C 181.445312 87.152344 180.691406 87.554688 179.976562 88.035156 C 179.261719 88.511719 178.601562 89.054688 177.992188 89.660156 L 159.574219 108.082031 L 182.945312 131.453125 C 188.382812 129.550781 194.609375 130.851562 198.941406 135.183594 C 199.972656 136.214844 200.839844 137.371094 201.546875 138.648438 C 202.25 139.925781 202.769531 141.273438 203.09375 142.699219 C 203.421875 144.121094 203.542969 145.558594 203.464844 147.015625 C 203.386719 148.476562 203.109375 149.894531 202.628906 151.273438 L 225.160156 173.800781 C 230.609375 171.921875 236.898438 173.132812 241.246094 177.496094 C 241.972656 178.21875 242.617188 179.007812 243.1875 179.859375 C 243.753906 180.707031 244.234375 181.605469 244.628906 182.550781 C 245.019531 183.496094 245.316406 184.472656 245.515625 185.476562 C 245.714844 186.476562 245.8125 187.492188 245.8125 188.515625 C 245.816406 189.539062 245.714844 190.550781 245.515625 191.554688 C 245.316406 192.558594 245.019531 193.53125 244.628906 194.476562 C 244.238281 195.421875 243.757812 196.320312 243.1875 197.171875 C 242.621094 198.023438 241.972656 198.808594 241.25 199.53125 C 240.527344 200.257812 239.738281 200.902344 238.886719 201.46875 C 238.039062 202.039062 237.140625 202.519531 236.195312 202.910156 C 235.25 203.300781 234.273438 203.597656 233.269531 203.796875 C 232.265625 203.996094 231.253906 204.09375 230.230469 204.09375 C 229.207031 204.09375 228.195312 203.992188 227.191406 203.792969 C 226.1875 203.59375 225.210938 203.296875 224.269531 202.90625 C 223.324219 202.511719 222.425781 202.03125 221.574219 201.464844 C 220.722656 200.894531 219.9375 200.25 219.214844 199.523438 C 214.640625 194.953125 213.511719 188.21875 215.824219 182.585938 L 194.8125 161.574219 L 194.8125 216.863281 C 196.347656 217.625 197.722656 218.605469 198.941406 219.8125 C 199.664062 220.535156 200.308594 221.320312 200.878906 222.171875 C 201.445312 223.023438 201.925781 223.917969 202.316406 224.863281 C 202.707031 225.808594 203.003906 226.785156 203.203125 227.785156 C 203.402344 228.789062 203.503906 229.800781 203.503906 230.824219 C 203.503906 231.847656 203.402344 232.859375 203.203125 233.863281 C 203.003906 234.867188 202.707031 235.839844 202.316406 236.785156 C 201.925781 237.730469 201.445312 238.628906 200.878906 239.476562 C 200.308594 240.328125 199.664062 241.117188 198.941406 241.839844 C 198.21875 242.5625 197.429688 243.207031 196.578125 243.777344 C 195.730469 244.34375 194.832031 244.824219 193.886719 245.214844 C 192.941406 245.605469 191.96875 245.902344 190.964844 246.101562 C 189.960938 246.300781 188.949219 246.402344 187.925781 246.402344 C 186.902344 246.402344 185.890625 246.300781 184.886719 246.101562 C 183.886719 245.902344 182.910156 245.605469 181.964844 245.214844 C 181.019531 244.824219 180.125 244.34375 179.273438 243.777344 C 178.421875 243.207031 177.636719 242.5625 176.914062 241.839844 C 176.1875 241.117188 175.542969 240.328125 174.972656 239.480469 C 174.40625 238.628906 173.925781 237.730469 173.53125 236.785156 C 173.140625 235.839844 172.84375 234.867188 172.644531 233.863281 C 172.445312 232.859375 172.34375 231.847656 172.34375 230.824219 C 172.34375 229.800781 172.445312 228.789062 172.644531 227.785156 C 172.84375 226.78125 173.140625 225.808594 173.53125 224.863281 C 173.925781 223.917969 174.40625 223.019531 174.972656 222.171875 C 175.542969 221.320312 176.1875 220.535156 176.914062 219.8125 C 178.417969 218.3125 180.089844 217.175781 182.011719 216.414062 L 182.011719 160.609375 C 180.160156 159.847656 178.417969 158.722656 176.914062 157.210938 C 176.371094 156.667969 175.867188 156.085938 175.410156 155.46875 C 174.953125 154.851562 174.542969 154.203125 174.179688 153.527344 C 173.820312 152.847656 173.507812 152.148438 173.25 151.425781 C 172.992188 150.699219 172.789062 149.960938 172.640625 149.207031 C 172.492188 148.453125 172.402344 147.691406 172.367188 146.925781 C 172.328125 146.15625 172.351562 145.390625 172.429688 144.625 C 172.507812 143.863281 172.640625 143.105469 172.828125 142.363281 C 173.019531 141.617188 173.261719 140.890625 173.558594 140.183594 L 150.503906 117.136719 L 89.65625 177.921875 C 89.046875 178.53125 88.503906 179.191406 88.027344 179.90625 C 87.546875 180.621094 87.144531 181.375 86.816406 182.167969 C 86.484375 182.964844 86.238281 183.78125 86.070312 184.625 C 85.902344 185.46875 85.816406 186.320312 85.816406 187.179688 C 85.816406 188.039062 85.902344 188.890625 86.070312 189.734375 C 86.238281 190.578125 86.484375 191.398438 86.816406 192.191406 C 87.144531 192.984375 87.546875 193.738281 88.027344 194.453125 C 88.503906 195.167969 89.046875 195.828125 89.65625 196.4375 L 178.398438 285.167969 C 179.007812 285.777344 179.667969 286.320312 180.382812 286.796875 C 181.097656 287.273438 181.851562 287.679688 182.644531 288.007812 C 183.4375 288.335938 184.257812 288.585938 185.101562 288.75 C 185.941406 288.917969 186.792969 289.003906 187.652344 289.003906 C 188.511719 289.003906 189.363281 288.917969 190.207031 288.75 C 191.050781 288.585938 191.867188 288.335938 192.660156 288.007812 C 193.457031 287.679688 194.210938 287.273438 194.925781 286.796875 C 195.640625 286.320312 196.300781 285.777344 196.90625 285.167969 L 285.238281 196.976562 C 285.847656 196.371094 286.390625 195.707031 286.867188 194.992188 C 287.347656 194.28125 287.75 193.523438 288.078125 192.730469 C 288.410156 191.9375 288.65625 191.117188 288.824219 190.273438 C 288.992188 189.429688 289.078125 188.578125 289.078125 187.71875 C 289.078125 186.859375 288.992188 186.007812 288.824219 185.164062 C 288.65625 184.324219 288.410156 183.503906 288.078125 182.710938 C 287.75 181.914062 287.347656 181.160156 286.867188 180.445312 C 286.390625 179.730469 285.847656 179.070312 285.238281 178.460938 " fill-opacity="1" fill-rule="nonzero"/></g></svg>