<svg xmlns="http://www.w3.org/2000/svg" xmlns:xlink="http://www.w3.org/1999/xlink" width="500" zoomAndPan="magnify" viewBox="0 0 375 374.999991" height="500" preserveAspectRatio="xMidYMid meet" version="1.0"><defs><clipPath id="79029d97ff"><path d="M 33.816406 32.167969 L 341.179688 32.167969 L 341.179688 343 L 33.816406 343 Z M 33.816406 32.167969 " clip-rule="nonzero"/></clipPath><clipPath id="5c632127dc"><path d="M 187.5 32.167969 C 102.625 32.167969 33.816406 101.710938 33.816406 187.5 C 33.816406 273.289062 102.625 342.832031 187.5 342.832031 C 272.375 342.832031 341.179688 273.289062 341.179688 187.5 C 341.179688 101.710938 272.375 32.167969 187.5 32.167969 Z M 187.5 32.167969 " clip-rule="nonzero"/></clipPath><clipPath id="658e67aeea"><path d="M 33.816406 32.167969 L 341.316406 32.167969 L 341.316406 342.667969 L 33.816406 342.667969 Z M 33.816406 32.167969 " clip-rule="nonzero"/></clipPath><clipPath id="9a245e31c3"><path d="M 187.496094 32.167969 C 102.625 32.167969 33.816406 101.710938 33.816406 187.5 C 33.816406 273.285156 102.625 342.828125 187.496094 342.828125 C 272.371094 342.828125 341.175781 273.285156 341.175781 187.5 C 341.175781 101.710938 272.371094 32.167969 187.496094 32.167969 Z M 187.496094 32.167969 " clip-rule="nonzero"/></clipPath><clipPath id="82a973a16e"><path d="M 47.578125 47 L 327.328125 47 L 327.328125 328 L 47.578125 328 Z M 47.578125 47 " clip-rule="nonzero"/></clipPath></defs><g clip-path="url(#79029d97ff)"><g clip-path="url(#5c632127dc)"><path fill="#ffffff" d="M 33.816406 32.167969 L 341.179688 32.167969 L 341.179688 343.132812 L 33.816406 343.132812 Z M 33.816406 32.167969 " fill-opacity="1" fill-rule="nonzero"/></g></g><g clip-path="url(#658e67aeea)"><g clip-path="url(#9a245e31c3)"><path stroke-linecap="butt" transform="matrix(0.75, 0, 0, 0.75, 33.818348, 32.166322)" fill="none" stroke-linejoin="miter" d="M 204.903687 0.00219518 C 91.742214 0.00219518 -0.00258937 92.726166 -0.00258937 207.111597 C -0.00258937 321.49182 91.742214 414.215791 204.903687 414.215791 C 318.070369 414.215791 409.809964 321.49182 409.809964 207.111597 C 409.809964 92.726166 318.070369 0.00219518 204.903687 0.00219518 Z M 204.903687 0.00219518 " stroke="#d9d9d9" stroke-width="6" stroke-opacity="1" stroke-miterlimit="4"/></g></g><g clip-path="url(#82a973a16e)"><path fill="#000000" d="M 187.453125 47.582031 C 110.203125 47.582031 47.578125 110.28125 47.578125 187.625 C 47.578125 264.964844 110.203125 327.664062 187.453125 327.664062 C 264.703125 327.664062 327.328125 264.964844 327.328125 187.625 C 327.328125 110.28125 264.703125 47.582031 187.453125 47.582031 Z M 70.890625 187.625 C 70.890625 123.171875 123.078125 70.921875 187.453125 70.921875 C 251.828125 70.921875 304.015625 123.171875 304.015625 187.625 C 304.015625 240.144531 269.363281 284.558594 221.699219 299.203125 C 223.003906 275.617188 222.554688 261.007812 220.359375 255.375 C 218.042969 249.429688 216.15625 246.992188 215.023438 245.53125 C 214.277344 244.570312 213.863281 244.035156 213.863281 243.203125 C 213.863281 241.800781 214.847656 240.785156 216.816406 240.15625 C 233.992188 236.355469 245.507812 225.789062 251.367188 208.457031 C 259.484375 184.4375 247.898438 166.972656 243.207031 159.910156 C 242.820312 159.324219 242.480469 158.8125 242.203125 158.371094 C 238.558594 152.609375 243.332031 138.589844 249.035156 127.367188 C 229.640625 123.472656 222.234375 132.496094 217.988281 137.667969 C 216.253906 139.78125 215.042969 141.253906 213.761719 140.941406 C 212.617188 140.660156 211.382812 140.121094 209.902344 139.46875 C 205.667969 137.605469 199.421875 134.855469 187.453125 134.855469 C 172.609375 134.855469 162.773438 140.046875 161.273438 140.839844 C 161.140625 140.910156 161.070312 140.941406 161.070312 140.941406 C 153.269531 130.054688 142.1875 125.53125 127.828125 127.367188 C 131.785156 143.1875 132.082031 153.523438 128.722656 158.371094 C 123.679688 165.644531 114.234375 182.566406 121.566406 208.457031 C 128.902344 234.34375 155.605469 240.15625 160.6875 240.15625 L 160.71875 240.164062 C 161.125 240.25 164.863281 241.058594 163.742188 244.222656 C 163.519531 245.066406 163.375 246.210938 163.210938 247.503906 C 162.679688 251.644531 161.960938 257.277344 157.988281 259.109375 C 152.78125 261.511719 141.296875 262.824219 136.492188 259.824219 C 134.890625 258.828125 133.742188 256.738281 132.355469 254.222656 C 129.585938 249.183594 125.871094 242.4375 115.714844 239.296875 C 100.484375 234.589844 101.441406 240.816406 105.242188 242.34375 C 106.078125 242.679688 107.1875 242.992188 108.453125 243.351562 C 112.9375 244.625 119.390625 246.453125 122.695312 251.78125 C 123.664062 253.34375 124.664062 255.054688 125.683594 256.800781 C 129.121094 262.699219 132.808594 269.023438 136.492188 271.449219 C 139.675781 273.546875 147.304688 274.386719 159.378906 273.96875 C 158.855469 285.378906 158.574219 294.292969 158.539062 300.703125 C 108.148438 287.828125 70.890625 242.082031 70.890625 187.625 Z M 70.890625 187.625 " fill-opacity="0.85" fill-rule="evenodd"/></g></svg>