<svg xmlns="http://www.w3.org/2000/svg" xmlns:xlink="http://www.w3.org/1999/xlink" width="500" zoomAndPan="magnify" viewBox="0 0 375 374.999991" height="500" preserveAspectRatio="xMidYMid meet" version="1.0"><defs><clipPath id="e2810aa051"><path d="M 33.816406 32.167969 L 341.179688 32.167969 L 341.179688 343 L 33.816406 343 Z M 33.816406 32.167969 " clip-rule="nonzero"/></clipPath><clipPath id="3b8465278a"><path d="M 187.5 32.167969 C 102.625 32.167969 33.816406 101.710938 33.816406 187.5 C 33.816406 273.289062 102.625 342.832031 187.5 342.832031 C 272.375 342.832031 341.179688 273.289062 341.179688 187.5 C 341.179688 101.710938 272.375 32.167969 187.5 32.167969 Z M 187.5 32.167969 " clip-rule="nonzero"/></clipPath><clipPath id="e138ed189c"><path d="M 33.816406 32.167969 L 341.316406 32.167969 L 341.316406 342.667969 L 33.816406 342.667969 Z M 33.816406 32.167969 " clip-rule="nonzero"/></clipPath><clipPath id="ccf527d8c3"><path d="M 187.496094 32.167969 C 102.625 32.167969 33.816406 101.710938 33.816406 187.5 C 33.816406 273.285156 102.625 342.828125 187.496094 342.828125 C 272.371094 342.828125 341.175781 273.285156 341.175781 187.5 C 341.175781 101.710938 272.371094 32.167969 187.496094 32.167969 Z M 187.496094 32.167969 " clip-rule="nonzero"/></clipPath><clipPath id="46e4824f75"><path d="M 98.566406 86 L 276.316406 86 L 276.316406 289 L 98.566406 289 Z M 98.566406 86 " clip-rule="nonzero"/></clipPath></defs><g clip-path="url(#e2810aa051)"><g clip-path="url(#3b8465278a)"><path fill="#ffffff" d="M 33.816406 32.167969 L 341.179688 32.167969 L 341.179688 343.132812 L 33.816406 343.132812 Z M 33.816406 32.167969 " fill-opacity="1" fill-rule="nonzero"/></g></g><g clip-path="url(#e138ed189c)"><g clip-path="url(#ccf527d8c3)"><path stroke-linecap="butt" transform="matrix(0.75, 0, 0, 0.75, 33.818348, 32.166322)" fill="none" stroke-linejoin="miter" d="M 204.903687 0.00219518 C 91.742214 0.00219518 -0.00258937 92.726166 -0.00258937 207.111597 C -0.00258937 321.49182 91.742214 414.215791 204.903687 414.215791 C 318.070369 414.215791 409.809964 321.49182 409.809964 207.111597 C 409.809964 92.726166 318.070369 0.00219518 204.903687 0.00219518 Z M 204.903687 0.00219518 " stroke="#d9d9d9" stroke-width="6" stroke-opacity="1" stroke-miterlimit="4"/></g></g><g clip-path="url(#46e4824f75)"><path fill="#e44d26" d="M 114.875 268.027344 L 98.726562 86.816406 L 276.15625 86.816406 L 259.992188 267.996094 L 187.332031 288.152344 Z M 114.875 268.027344 " fill-opacity="1" fill-rule="nonzero"/></g><path fill="#f16529" d="M 187.441406 272.75 L 246.15625 256.46875 L 259.964844 101.632812 L 187.441406 101.632812 Z M 187.441406 272.75 " fill-opacity="1" fill-rule="nonzero"/><path fill="#ebebeb" d="M 187.441406 168.84375 L 158.046875 168.84375 L 156.015625 146.085938 L 187.441406 146.085938 L 187.441406 123.863281 L 131.742188 123.863281 L 132.269531 129.820312 L 137.730469 191.066406 L 187.441406 191.066406 Z M 187.441406 226.5625 L 187.339844 226.585938 L 162.605469 219.902344 L 161.023438 202.175781 L 138.726562 202.175781 L 141.839844 237.074219 L 187.339844 249.707031 L 187.441406 249.683594 Z M 187.441406 226.5625 " fill-opacity="1" fill-rule="nonzero"/><path fill="#ffffff" d="M 187.367188 168.84375 L 187.367188 191.066406 L 214.714844 191.066406 L 212.132812 219.894531 L 187.355469 226.578125 L 187.355469 249.699219 L 232.894531 237.074219 L 233.226562 233.316406 L 238.453125 174.800781 L 238.996094 168.835938 L 233.011719 168.835938 Z M 187.367188 123.863281 L 187.367188 146.085938 L 241.015625 146.085938 L 241.460938 141.085938 L 242.476562 129.820312 L 243.003906 123.855469 Z M 187.367188 123.863281 " fill-opacity="1" fill-rule="nonzero"/></svg>