<svg xmlns="http://www.w3.org/2000/svg" xmlns:xlink="http://www.w3.org/1999/xlink" width="500" zoomAndPan="magnify" viewBox="0 0 375 374.999991" height="500" preserveAspectRatio="xMidYMid meet" version="1.0"><defs><clipPath id="e62245d21c"><path d="M 33.816406 32.167969 L 341.179688 32.167969 L 341.179688 343 L 33.816406 343 Z M 33.816406 32.167969 " clip-rule="nonzero"/></clipPath><clipPath id="83e4aa574e"><path d="M 187.5 32.167969 C 102.625 32.167969 33.816406 101.710938 33.816406 187.5 C 33.816406 273.289062 102.625 342.832031 187.5 342.832031 C 272.375 342.832031 341.179688 273.289062 341.179688 187.5 C 341.179688 101.710938 272.375 32.167969 187.5 32.167969 Z M 187.5 32.167969 " clip-rule="nonzero"/></clipPath><clipPath id="c4d3f4dcd3"><path d="M 33.816406 32.167969 L 341.316406 32.167969 L 341.316406 342.667969 L 33.816406 342.667969 Z M 33.816406 32.167969 " clip-rule="nonzero"/></clipPath><clipPath id="5fe34b0a70"><path d="M 187.496094 32.167969 C 102.625 32.167969 33.816406 101.710938 33.816406 187.5 C 33.816406 273.285156 102.625 342.828125 187.496094 342.828125 C 272.371094 342.828125 341.175781 273.285156 341.175781 187.5 C 341.175781 101.710938 272.371094 32.167969 187.496094 32.167969 Z M 187.496094 32.167969 " clip-rule="nonzero"/></clipPath><clipPath id="b30c27e29a"><path d="M 87.359375 87.164062 L 287.484375 87.164062 L 287.484375 287.679688 L 87.359375 287.679688 Z M 87.359375 87.164062 " clip-rule="nonzero"/></clipPath></defs><g clip-path="url(#e62245d21c)"><g clip-path="url(#83e4aa574e)"><path fill="#ffffff" d="M 33.816406 32.167969 L 341.179688 32.167969 L 341.179688 343.132812 L 33.816406 343.132812 Z M 33.816406 32.167969 " fill-opacity="1" fill-rule="nonzero"/></g></g><g clip-path="url(#c4d3f4dcd3)"><g clip-path="url(#5fe34b0a70)"><path stroke-linecap="butt" transform="matrix(0.75, 0, 0, 0.75, 33.818348, 32.166264)" fill="none" stroke-linejoin="miter" d="M 204.903687 0.00227326 C 91.742214 0.00227326 -0.00258937 92.726244 -0.00258937 207.111675 C -0.00258937 321.491898 91.742214 414.215869 204.903687 414.215869 C 318.070369 414.215869 409.809964 321.491898 409.809964 207.111675 C 409.809964 92.726244 318.070369 0.00227326 204.903687 0.00227326 Z M 204.903687 0.00227326 " stroke="#d9d9d9" stroke-width="6" stroke-opacity="1" stroke-miterlimit="4"/></g></g><g clip-path="url(#b30c27e29a)"><path fill="#ffd600" d="M 63.984375 64.179688 L 287.484375 64.179688 L 287.484375 287.679688 L 63.984375 287.679688 Z M 63.984375 64.179688 " fill-opacity="1" fill-rule="nonzero"/></g><path fill="#000001" d="M 210.117188 231.476562 C 214.414062 238.453125 219.082031 245.140625 228.972656 245.140625 C 237.277344 245.140625 241.636719 241.011719 241.636719 235.300781 C 241.636719 228.464844 237.128906 226.035156 227.992188 222.058594 L 222.980469 219.921875 C 208.523438 213.789062 198.90625 206.101562 198.90625 189.867188 C 198.90625 174.90625 210.359375 163.519531 228.257812 163.519531 C 241.003906 163.519531 250.160156 167.933594 256.765625 179.492188 L 241.160156 189.46875 C 237.726562 183.335938 234.011719 180.921875 228.257812 180.921875 C 222.386719 180.921875 218.667969 184.628906 218.667969 189.46875 C 218.667969 195.453125 222.390625 197.875 230.988281 201.582031 L 236 203.71875 C 253.042969 210.976562 262.652344 218.386719 262.652344 235.050781 C 262.652344 253.003906 248.472656 262.847656 229.4375 262.847656 C 210.820312 262.847656 200.246094 253.503906 194.359375 241.9375 Z M 138.1875 231.984375 C 141.328125 237.609375 146.101562 241.9375 152.96875 241.9375 C 159.539062 241.9375 163.320312 239.339844 163.320312 229.253906 L 163.320312 163.511719 L 184.011719 163.511719 L 184.011719 232.429688 C 184.011719 253.335938 171.886719 262.847656 154.179688 262.847656 C 138.179688 262.847656 126.632812 252.007812 121.929688 241.9375 Z M 138.1875 231.984375 " fill-opacity="1" fill-rule="nonzero"/></svg>