<svg xmlns="http://www.w3.org/2000/svg" xmlns:xlink="http://www.w3.org/1999/xlink" width="500" zoomAndPan="magnify" viewBox="0 0 375 374.999991" height="500" preserveAspectRatio="xMidYMid meet" version="1.0"><defs><clipPath id="17c546f58f"><path d="M 33.816406 32.167969 L 341.179688 32.167969 L 341.179688 343 L 33.816406 343 Z M 33.816406 32.167969 " clip-rule="nonzero"/></clipPath><clipPath id="f3b91f37a4"><path d="M 187.5 32.167969 C 102.625 32.167969 33.816406 101.710938 33.816406 187.5 C 33.816406 273.289062 102.625 342.832031 187.5 342.832031 C 272.375 342.832031 341.179688 273.289062 341.179688 187.5 C 341.179688 101.710938 272.375 32.167969 187.5 32.167969 Z M 187.5 32.167969 " clip-rule="nonzero"/></clipPath><clipPath id="ca628bfa67"><path d="M 33.816406 32.167969 L 341.316406 32.167969 L 341.316406 342.667969 L 33.816406 342.667969 Z M 33.816406 32.167969 " clip-rule="nonzero"/></clipPath><clipPath id="7dd630470a"><path d="M 187.496094 32.167969 C 102.625 32.167969 33.816406 101.710938 33.816406 187.5 C 33.816406 273.285156 102.625 342.828125 187.496094 342.828125 C 272.371094 342.828125 341.175781 273.285156 341.175781 187.5 C 341.175781 101.710938 272.371094 32.167969 187.496094 32.167969 Z M 187.496094 32.167969 " clip-rule="nonzero"/></clipPath><clipPath id="40bf4eb605"><path d="M 130 65.164062 L 245 65.164062 L 245 309.664062 L 130 309.664062 Z M 130 65.164062 " clip-rule="nonzero"/></clipPath></defs><g clip-path="url(#17c546f58f)"><g clip-path="url(#f3b91f37a4)"><path fill="#ffffff" d="M 33.816406 32.167969 L 341.179688 32.167969 L 341.179688 343.132812 L 33.816406 343.132812 Z M 33.816406 32.167969 " fill-opacity="1" fill-rule="nonzero"/></g></g><g clip-path="url(#ca628bfa67)"><g clip-path="url(#7dd630470a)"><path stroke-linecap="butt" transform="matrix(0.75, 0, 0, 0.75, 33.818348, 32.166322)" fill="none" stroke-linejoin="miter" d="M 204.903687 0.00219518 C 91.742214 0.00219518 -0.00258937 92.726166 -0.00258937 207.111597 C -0.00258937 321.49182 91.742214 414.215791 204.903687 414.215791 C 318.070369 414.215791 409.809964 321.49182 409.809964 207.111597 C 409.809964 92.726166 318.070369 0.00219518 204.903687 0.00219518 Z M 204.903687 0.00219518 " stroke="#d9d9d9" stroke-width="6" stroke-opacity="1" stroke-miterlimit="4"/></g></g><g clip-path="url(#40bf4eb605)"><path fill="#01ec64" d="M 208.742188 92.808594 C 198.503906 80.679688 189.683594 68.359375 187.882812 65.800781 C 187.839844 65.753906 187.789062 65.71875 187.730469 65.695312 C 187.675781 65.671875 187.613281 65.65625 187.550781 65.65625 C 187.488281 65.65625 187.429688 65.671875 187.371094 65.695312 C 187.3125 65.71875 187.261719 65.753906 187.21875 65.800781 C 185.417969 68.359375 176.601562 80.679688 166.359375 92.808594 C 78.46875 204.726562 180.203125 280.253906 180.203125 280.253906 L 181.058594 280.824219 C 181.816406 292.480469 183.710938 309.253906 183.710938 309.253906 L 191.296875 309.253906 C 191.296875 309.253906 193.191406 292.574219 193.953125 280.824219 L 194.804688 280.160156 C 194.898438 280.257812 296.636719 204.726562 208.742188 92.808594 Z M 187.503906 278.550781 C 187.503906 278.550781 182.953125 274.664062 181.71875 272.675781 L 181.71875 272.484375 L 187.21875 150.617188 C 187.21875 150.238281 187.789062 150.238281 187.789062 150.617188 L 193.289062 272.484375 L 193.289062 272.675781 C 192.054688 274.664062 187.503906 278.550781 187.503906 278.550781 Z M 187.503906 278.550781 " fill-opacity="1" fill-rule="nonzero"/></g></svg>