<svg xmlns="http://www.w3.org/2000/svg" xmlns:xlink="http://www.w3.org/1999/xlink" width="500" zoomAndPan="magnify" viewBox="0 0 375 374.999991" height="500" preserveAspectRatio="xMidYMid meet" version="1.0"><defs><clipPath id="4a2be3580b"><path d="M 33.816406 32.167969 L 341.179688 32.167969 L 341.179688 343 L 33.816406 343 Z M 33.816406 32.167969 " clip-rule="nonzero"/></clipPath><clipPath id="13d39bda13"><path d="M 187.5 32.167969 C 102.625 32.167969 33.816406 101.710938 33.816406 187.5 C 33.816406 273.289062 102.625 342.832031 187.5 342.832031 C 272.375 342.832031 341.179688 273.289062 341.179688 187.5 C 341.179688 101.710938 272.375 32.167969 187.5 32.167969 Z M 187.5 32.167969 " clip-rule="nonzero"/></clipPath><clipPath id="a541bac03d"><path d="M 33.816406 32.167969 L 341.316406 32.167969 L 341.316406 342.667969 L 33.816406 342.667969 Z M 33.816406 32.167969 " clip-rule="nonzero"/></clipPath><clipPath id="fc4e2d5298"><path d="M 187.496094 32.167969 C 102.625 32.167969 33.816406 101.710938 33.816406 187.5 C 33.816406 273.285156 102.625 342.828125 187.496094 342.828125 C 272.371094 342.828125 341.175781 273.285156 341.175781 187.5 C 341.175781 101.710938 272.371094 32.167969 187.496094 32.167969 Z M 187.496094 32.167969 " clip-rule="nonzero"/></clipPath></defs><g clip-path="url(#4a2be3580b)"><g clip-path="url(#13d39bda13)"><path fill="#ffffff" d="M 33.816406 32.167969 L 341.179688 32.167969 L 341.179688 343.132812 L 33.816406 343.132812 Z M 33.816406 32.167969 " fill-opacity="1" fill-rule="nonzero"/></g></g><g clip-path="url(#a541bac03d)"><g clip-path="url(#fc4e2d5298)"><path stroke-linecap="butt" transform="matrix(0.75, 0, 0, 0.75, 33.818348, 32.166264)" fill="none" stroke-linejoin="miter" d="M 204.903687 0.00227326 C 91.742214 0.00227326 -0.00258937 92.726244 -0.00258937 207.111675 C -0.00258937 321.491898 91.742214 414.215869 204.903687 414.215869 C 318.070369 414.215869 409.809964 321.491898 409.809964 207.111675 C 409.809964 92.726244 318.070369 0.00227326 204.903687 0.00227326 Z M 204.903687 0.00227326 " stroke="#d9d9d9" stroke-width="6" stroke-opacity="1" stroke-miterlimit="4"/></g></g><path fill="#000001" d="M 262.074219 62.039062 C 166.546875 5.871094 45.164062 74.476562 44.105469 185.230469 C 43.074219 293.378906 157.53125 363.234375 252.839844 315.632812 L 148.777344 162.527344 L 148.777344 257.296875 C 148.777344 267.796875 128.683594 267.796875 128.683594 257.296875 L 128.683594 130.25 C 128.683594 121.914062 144.167969 121.230469 148.554688 128.476562 L 267.167969 307.46875 C 356.269531 250.074219 355.066406 116.71875 262.074219 62.039062 Z M 248.671875 241.394531 L 228.515625 210.609375 L 228.515625 126.320312 C 228.515625 118.460938 248.671875 118.460938 248.671875 126.320312 Z M 248.671875 241.394531 " fill-opacity="1" fill-rule="nonzero"/></svg>