<svg xmlns="http://www.w3.org/2000/svg" xmlns:xlink="http://www.w3.org/1999/xlink" width="500" zoomAndPan="magnify" viewBox="0 0 375 374.999991" height="500" preserveAspectRatio="xMidYMid meet" version="1.0"><defs><clipPath id="42a99c306c"><path d="M 33.816406 32.167969 L 341.179688 32.167969 L 341.179688 343 L 33.816406 343 Z M 33.816406 32.167969 " clip-rule="nonzero"/></clipPath><clipPath id="877d972f61"><path d="M 187.5 32.167969 C 102.625 32.167969 33.816406 101.710938 33.816406 187.5 C 33.816406 273.289062 102.625 342.832031 187.5 342.832031 C 272.375 342.832031 341.179688 273.289062 341.179688 187.5 C 341.179688 101.710938 272.375 32.167969 187.5 32.167969 Z M 187.5 32.167969 " clip-rule="nonzero"/></clipPath><clipPath id="f971ea3244"><path d="M 33.816406 32.167969 L 341.316406 32.167969 L 341.316406 342.667969 L 33.816406 342.667969 Z M 33.816406 32.167969 " clip-rule="nonzero"/></clipPath><clipPath id="0b46e2b0de"><path d="M 187.496094 32.167969 C 102.625 32.167969 33.816406 101.710938 33.816406 187.5 C 33.816406 273.285156 102.625 342.828125 187.496094 342.828125 C 272.371094 342.828125 341.175781 273.285156 341.175781 187.5 C 341.175781 101.710938 272.371094 32.167969 187.496094 32.167969 Z M 187.496094 32.167969 " clip-rule="nonzero"/></clipPath><clipPath id="dd835e2ca5"><path d="M 62.453125 137 L 312.203125 137 L 312.203125 237 L 62.453125 237 Z M 62.453125 137 " clip-rule="nonzero"/></clipPath></defs><g clip-path="url(#42a99c306c)"><g clip-path="url(#877d972f61)"><path fill="#ffffff" d="M 33.816406 32.167969 L 341.179688 32.167969 L 341.179688 343.132812 L 33.816406 343.132812 Z M 33.816406 32.167969 " fill-opacity="1" fill-rule="nonzero"/></g></g><g clip-path="url(#f971ea3244)"><g clip-path="url(#0b46e2b0de)"><path stroke-linecap="butt" transform="matrix(0.75, 0, 0, 0.75, 33.818348, 32.166326)" fill="none" stroke-linejoin="miter" d="M 204.903687 0.00219038 C 91.742214 0.00219038 -0.00258937 92.726161 -0.00258937 207.111592 C -0.00258937 321.491815 91.742214 414.215786 204.903687 414.215786 C 318.070369 414.215786 409.809964 321.491815 409.809964 207.111592 C 409.809964 92.726161 318.070369 0.00219038 204.903687 0.00219038 Z M 204.903687 0.00219038 " stroke="#d9d9d9" stroke-width="6" stroke-opacity="1" stroke-miterlimit="4"/></g></g><path fill="#c53735" d="M 173.457031 165.804688 L 187.328125 165.804688 L 187.328125 194.128906 L 173.457031 194.128906 Z M 173.457031 165.804688 " fill-opacity="1" fill-rule="nonzero"/><g clip-path="url(#dd835e2ca5)"><path fill="#c53735" d="M 312.203125 137.484375 L 62.453125 137.484375 L 62.453125 222.460938 L 131.832031 222.460938 L 131.832031 236.621094 L 187.328125 236.621094 L 187.328125 222.460938 L 312.203125 222.460938 Z M 131.832031 208.300781 L 117.949219 208.300781 L 117.949219 165.804688 L 104.078125 165.804688 L 104.078125 208.289062 L 76.324219 208.289062 L 76.324219 151.644531 L 131.824219 151.644531 L 131.824219 208.300781 Z M 201.199219 208.300781 L 173.449219 208.300781 L 173.449219 222.460938 L 145.703125 222.460938 L 145.703125 151.644531 L 201.199219 151.644531 Z M 298.332031 208.300781 L 284.460938 208.300781 L 284.460938 165.804688 L 270.578125 165.804688 L 270.578125 208.289062 L 256.707031 208.289062 L 256.707031 165.804688 L 242.835938 165.804688 L 242.835938 208.289062 L 215.082031 208.289062 L 215.082031 151.644531 L 298.332031 151.644531 Z M 298.332031 208.300781 " fill-opacity="1" fill-rule="nonzero"/></g></svg>