<svg xmlns="http://www.w3.org/2000/svg" xmlns:xlink="http://www.w3.org/1999/xlink" width="500" zoomAndPan="magnify" viewBox="0 0 375 374.999991" height="500" preserveAspectRatio="xMidYMid meet" version="1.0"><defs><clipPath id="b1a6600be4"><path d="M 33.816406 32.167969 L 341.179688 32.167969 L 341.179688 343 L 33.816406 343 Z M 33.816406 32.167969 " clip-rule="nonzero"/></clipPath><clipPath id="4ad02fd11b"><path d="M 187.5 32.167969 C 102.625 32.167969 33.816406 101.710938 33.816406 187.5 C 33.816406 273.289062 102.625 342.832031 187.5 342.832031 C 272.375 342.832031 341.179688 273.289062 341.179688 187.5 C 341.179688 101.710938 272.375 32.167969 187.5 32.167969 Z M 187.5 32.167969 " clip-rule="nonzero"/></clipPath><clipPath id="fce27f46c7"><path d="M 33.816406 32.167969 L 341.316406 32.167969 L 341.316406 342.667969 L 33.816406 342.667969 Z M 33.816406 32.167969 " clip-rule="nonzero"/></clipPath><clipPath id="d09db40bae"><path d="M 187.496094 32.167969 C 102.625 32.167969 33.816406 101.710938 33.816406 187.5 C 33.816406 273.285156 102.625 342.828125 187.496094 342.828125 C 272.371094 342.828125 341.175781 273.285156 341.175781 187.5 C 341.175781 101.710938 272.371094 32.167969 187.496094 32.167969 Z M 187.496094 32.167969 " clip-rule="nonzero"/></clipPath></defs><g clip-path="url(#b1a6600be4)"><g clip-path="url(#4ad02fd11b)"><path fill="#ffffff" d="M 33.816406 32.167969 L 341.179688 32.167969 L 341.179688 343.132812 L 33.816406 343.132812 Z M 33.816406 32.167969 " fill-opacity="1" fill-rule="nonzero"/></g></g><g clip-path="url(#fce27f46c7)"><g clip-path="url(#d09db40bae)"><path stroke-linecap="butt" transform="matrix(0.75, 0, 0, 0.75, 33.818348, 32.166326)" fill="none" stroke-linejoin="miter" d="M 204.903687 0.00219038 C 91.742214 0.00219038 -0.00258937 92.726161 -0.00258937 207.111592 C -0.00258937 321.491815 91.742214 414.215786 204.903687 414.215786 C 318.070369 414.215786 409.809964 321.491815 409.809964 207.111592 C 409.809964 92.726161 318.070369 0.00219038 204.903687 0.00219038 Z M 204.903687 0.00219038 " stroke="#d9d9d9" stroke-width="6" stroke-opacity="1" stroke-miterlimit="4"/></g></g><path fill="#000000" d="M 240.625 146.984375 L 240.632812 146.984375 L 240.632812 146.953125 Z M 240.625 146.984375 " fill-opacity="1" fill-rule="nonzero"/><path fill="#f2bb30" d="M 261.875 236.464844 C 276.222656 236.464844 281.527344 226.457031 286.511719 211.457031 C 291.679688 196.007812 291.453125 181.144531 286.511719 161.359375 C 282.957031 147.105469 276.230469 136.351562 261.875 136.351562 L 243.386719 136.351562 L 243.386719 158.230469 C 243.386719 175.203125 228.988281 189.507812 212.578125 189.507812 L 163.304688 189.507812 C 149.828125 189.507812 138.667969 201.039062 138.667969 214.558594 L 138.667969 261.523438 C 138.667969 274.894531 150.292969 282.742188 163.304688 286.574219 C 178.890625 291.136719 193.890625 291.960938 212.570312 286.574219 C 224.976562 282.972656 237.203125 275.722656 237.203125 261.523438 L 237.203125 242.742188 L 187.976562 242.742188 L 187.976562 236.472656 L 261.875 236.472656 Z M 215.660156 255.246094 C 220.773438 255.246094 224.933594 259.449219 224.933594 264.613281 C 224.933594 269.832031 220.785156 274.027344 215.660156 274.027344 C 210.578125 274.027344 206.386719 269.78125 206.386719 264.613281 C 206.4375 259.394531 210.597656 255.246094 215.660156 255.246094 Z M 215.660156 255.246094 " fill-opacity="1" fill-rule="nonzero"/><path fill="#35668f" d="M 113.289062 236.472656 L 130.21875 236.472656 L 130.21875 213.953125 C 130.21875 197.671875 144.289062 183.316406 161.03125 183.316406 L 210.296875 183.316406 C 223.996094 183.316406 234.929688 172.019531 234.929688 158.265625 L 234.929688 111.265625 C 234.929688 97.894531 223.675781 87.871094 210.296875 85.625 C 193.777344 82.894531 175.832031 83.046875 161.03125 85.675781 L 161.039062 85.667969 C 140.183594 89.351562 136.410156 97.050781 136.410156 111.300781 L 136.410156 130.082031 L 185.726562 130.082031 L 185.726562 136.359375 L 117.90625 136.359375 C 103.558594 136.359375 91.003906 144.988281 87.097656 161.367188 C 82.574219 180.148438 82.394531 191.859375 87.097656 211.464844 C 90.59375 226.042969 98.953125 236.472656 113.289062 236.472656 Z M 157.949219 117.535156 C 152.832031 117.535156 148.675781 113.332031 148.675781 108.167969 C 148.734375 102.949219 152.832031 98.753906 157.949219 98.753906 C 163.027344 98.753906 167.222656 102.992188 167.222656 108.167969 C 167.222656 113.34375 163.070312 117.535156 157.949219 117.535156 Z M 157.949219 117.535156 " fill-opacity="1" fill-rule="nonzero"/></svg>