<svg xmlns="http://www.w3.org/2000/svg" xmlns:xlink="http://www.w3.org/1999/xlink" width="500" zoomAndPan="magnify" viewBox="0 0 375 374.999991" height="500" preserveAspectRatio="xMidYMid meet" version="1.0"><defs><clipPath id="1b43c04c60"><path d="M 33.816406 32.167969 L 341.179688 32.167969 L 341.179688 343 L 33.816406 343 Z M 33.816406 32.167969 " clip-rule="nonzero"/></clipPath><clipPath id="2460a07b1a"><path d="M 187.5 32.167969 C 102.625 32.167969 33.816406 101.710938 33.816406 187.5 C 33.816406 273.289062 102.625 342.832031 187.5 342.832031 C 272.375 342.832031 341.179688 273.289062 341.179688 187.5 C 341.179688 101.710938 272.375 32.167969 187.5 32.167969 Z M 187.5 32.167969 " clip-rule="nonzero"/></clipPath><clipPath id="aa1ad16883"><path d="M 33.816406 32.167969 L 341.316406 32.167969 L 341.316406 342.667969 L 33.816406 342.667969 Z M 33.816406 32.167969 " clip-rule="nonzero"/></clipPath><clipPath id="f721f0b7e6"><path d="M 187.496094 32.167969 C 102.625 32.167969 33.816406 101.710938 33.816406 187.5 C 33.816406 273.285156 102.625 342.828125 187.496094 342.828125 C 272.371094 342.828125 341.175781 273.285156 341.175781 187.5 C 341.175781 101.710938 272.371094 32.167969 187.496094 32.167969 Z M 187.496094 32.167969 " clip-rule="nonzero"/></clipPath><clipPath id="b6cabff657"><path d="M 54.519531 70 L 303.519531 70 L 303.519531 293 L 54.519531 293 Z M 54.519531 70 " clip-rule="nonzero"/></clipPath></defs><g clip-path="url(#1b43c04c60)"><g clip-path="url(#2460a07b1a)"><path fill="#ffffff" d="M 33.816406 32.167969 L 341.179688 32.167969 L 341.179688 343.132812 L 33.816406 343.132812 Z M 33.816406 32.167969 " fill-opacity="1" fill-rule="nonzero"/></g></g><g clip-path="url(#aa1ad16883)"><g clip-path="url(#f721f0b7e6)"><path stroke-linecap="butt" transform="matrix(0.75, 0, 0, 0.75, 33.818348, 32.166326)" fill="none" stroke-linejoin="miter" d="M 204.903687 0.00219038 C 91.742214 0.00219038 -0.00258937 92.726161 -0.00258937 207.111592 C -0.00258937 321.491815 91.742214 414.215786 204.903687 414.215786 C 318.070369 414.215786 409.809964 321.491815 409.809964 207.111592 C 409.809964 92.726161 318.070369 0.00219038 204.903687 0.00219038 Z M 204.903687 0.00219038 " stroke="#d9d9d9" stroke-width="6" stroke-opacity="1" stroke-miterlimit="4"/></g></g><g clip-path="url(#b6cabff657)"><path fill="#00d8ff" d="M 259.15625 142.539062 C 256.507812 141.628906 253.835938 140.789062 251.144531 140.015625 C 251.597656 138.167969 252.015625 136.34375 252.382812 134.550781 C 258.449219 105.128906 254.484375 81.421875 240.941406 73.617188 C 227.957031 66.136719 206.722656 73.9375 185.277344 92.59375 C 183.164062 94.433594 181.097656 96.328125 179.078125 98.273438 C 177.726562 96.980469 176.355469 95.710938 174.957031 94.46875 C 152.480469 74.523438 129.949219 66.117188 116.421875 73.945312 C 103.449219 81.449219 99.609375 103.734375 105.070312 131.621094 C 105.613281 134.382812 106.226562 137.128906 106.910156 139.859375 C 103.71875 140.765625 100.644531 141.730469 97.699219 142.753906 C 71.347656 151.9375 54.519531 166.328125 54.519531 181.253906 C 54.519531 196.671875 72.585938 212.132812 100.03125 221.511719 C 102.253906 222.265625 104.5 222.96875 106.757812 223.613281 C 106.027344 226.554688 105.375 229.515625 104.804688 232.492188 C 99.601562 259.894531 103.664062 281.652344 116.601562 289.109375 C 129.964844 296.8125 152.390625 288.898438 174.230469 269.816406 C 176 268.265625 177.730469 266.671875 179.421875 265.035156 C 181.609375 267.140625 183.851562 269.1875 186.152344 271.167969 C 207.304688 289.359375 228.195312 296.707031 241.121094 289.230469 C 254.472656 281.503906 258.808594 258.132812 253.175781 229.695312 C 252.734375 227.464844 252.234375 225.25 251.683594 223.046875 C 253.257812 222.578125 254.804688 222.101562 256.3125 221.601562 C 284.84375 212.152344 303.410156 196.878906 303.410156 181.253906 C 303.410156 166.273438 286.039062 151.785156 259.15625 142.539062 Z M 252.96875 211.515625 C 251.609375 211.964844 250.210938 212.398438 248.789062 212.820312 C 245.636719 202.855469 241.386719 192.257812 236.183594 181.304688 C 241.148438 170.617188 245.238281 160.15625 248.296875 150.253906 C 250.84375 150.988281 253.316406 151.765625 255.695312 152.585938 C 278.730469 160.511719 292.777344 172.226562 292.777344 181.253906 C 292.777344 190.871094 277.605469 203.355469 252.96875 211.515625 Z M 242.746094 231.757812 C 245.238281 244.332031 245.59375 255.703125 243.941406 264.589844 C 242.460938 272.574219 239.480469 277.898438 235.792969 280.03125 C 227.949219 284.570312 211.175781 278.671875 193.085938 263.113281 C 190.949219 261.269531 188.859375 259.367188 186.828125 257.410156 C 193.839844 249.742188 200.851562 240.832031 207.691406 230.933594 C 219.722656 229.867188 231.089844 228.121094 241.398438 225.742188 C 241.894531 227.734375 242.34375 229.742188 242.746094 231.757812 Z M 139.371094 279.25 C 131.707031 281.953125 125.605469 282.03125 121.914062 279.90625 C 114.0625 275.378906 110.800781 257.910156 115.25 234.476562 C 115.78125 231.707031 116.386719 228.953125 117.070312 226.21875 C 127.265625 228.472656 138.546875 230.09375 150.609375 231.070312 C 157.496094 240.753906 164.707031 249.65625 171.976562 257.453125 C 170.429688 258.945312 168.847656 260.402344 167.234375 261.816406 C 157.574219 270.253906 147.898438 276.238281 139.371094 279.25 Z M 103.46875 211.453125 C 91.332031 207.308594 81.3125 201.921875 74.441406 196.039062 C 68.269531 190.757812 65.152344 185.511719 65.152344 181.253906 C 65.152344 172.195312 78.664062 160.644531 101.199219 152.789062 C 103.933594 151.839844 106.796875 150.941406 109.765625 150.097656 C 112.878906 160.222656 116.964844 170.808594 121.894531 181.511719 C 116.902344 192.378906 112.757812 203.132812 109.613281 213.378906 C 107.550781 212.785156 105.5 212.144531 103.46875 211.453125 Z M 115.503906 129.578125 C 110.828125 105.6875 113.933594 87.664062 121.75 83.140625 C 130.078125 78.324219 148.488281 85.191406 167.898438 102.414062 C 169.160156 103.539062 170.40625 104.6875 171.628906 105.859375 C 164.398438 113.621094 157.253906 122.457031 150.429688 132.085938 C 138.722656 133.167969 127.519531 134.910156 117.214844 137.242188 C 116.582031 134.703125 116.011719 132.148438 115.503906 129.578125 Z M 222.867188 156.074219 C 220.433594 151.875 217.910156 147.726562 215.296875 143.632812 C 223.238281 144.636719 230.847656 145.96875 237.992188 147.597656 C 235.847656 154.46875 233.171875 161.65625 230.027344 169.019531 C 227.726562 164.65625 225.339844 160.34375 222.867188 156.074219 Z M 179.082031 113.453125 C 183.988281 118.765625 188.898438 124.695312 193.730469 131.125 C 183.929688 130.664062 174.113281 130.660156 164.3125 131.121094 C 169.148438 124.746094 174.101562 118.828125 179.082031 113.453125 Z M 135.019531 156.148438 C 132.578125 160.378906 130.238281 164.667969 127.996094 169.011719 C 124.898438 161.671875 122.25 154.457031 120.085938 147.484375 C 127.1875 145.898438 134.761719 144.601562 142.652344 143.613281 C 140.011719 147.730469 137.464844 151.910156 135.019531 156.148438 Z M 142.878906 219.652344 C 134.726562 218.742188 127.039062 217.511719 119.941406 215.964844 C 122.136719 208.871094 124.84375 201.5 128.007812 194.003906 C 130.257812 198.351562 132.609375 202.640625 135.0625 206.875 C 137.585938 211.230469 140.195312 215.492188 142.878906 219.652344 Z M 179.378906 249.804688 C 174.335938 244.371094 169.3125 238.355469 164.402344 231.890625 C 169.167969 232.078125 174.027344 232.171875 178.964844 232.171875 C 184.039062 232.171875 189.050781 232.058594 193.988281 231.839844 C 189.140625 238.421875 184.25 244.441406 179.378906 249.804688 Z M 230.125 193.621094 C 233.453125 201.203125 236.257812 208.53125 238.484375 215.503906 C 231.265625 217.152344 223.476562 218.476562 215.265625 219.460938 C 217.898438 215.292969 220.445312 211.074219 222.90625 206.804688 C 225.410156 202.464844 227.816406 198.070312 230.125 193.621094 Z M 213.699219 201.492188 C 209.925781 208.039062 205.945312 214.460938 201.757812 220.746094 C 194.171875 221.285156 186.570312 221.550781 178.964844 221.546875 C 171.21875 221.546875 163.683594 221.308594 156.429688 220.835938 C 152.132812 214.5625 148.074219 208.132812 144.265625 201.550781 C 140.472656 195.007812 136.929688 188.320312 133.644531 181.507812 C 136.921875 174.695312 140.453125 168.003906 144.234375 161.457031 L 144.230469 161.457031 C 148.011719 154.90625 152.035156 148.5 156.300781 142.253906 C 163.703125 141.695312 171.292969 141.402344 178.964844 141.402344 C 186.671875 141.402344 194.269531 141.699219 201.671875 142.261719 C 205.890625 148.496094 209.890625 154.878906 213.664062 161.398438 C 217.453125 167.933594 221.03125 174.589844 224.390625 181.359375 C 221.066406 188.195312 217.5 194.910156 213.699219 201.492188 Z M 235.632812 82.824219 C 243.964844 87.628906 247.207031 107 241.96875 132.40625 C 241.636719 134.027344 241.261719 135.679688 240.851562 137.351562 C 230.523438 134.96875 219.3125 133.199219 207.574219 132.097656 C 200.734375 122.363281 193.648438 113.515625 186.53125 105.855469 C 188.398438 104.058594 190.304688 102.308594 192.257812 100.605469 C 210.632812 84.625 227.804688 78.316406 235.632812 82.824219 Z M 178.964844 159.042969 C 191.238281 159.042969 201.191406 168.988281 201.191406 181.253906 C 201.191406 193.523438 191.238281 203.46875 178.964844 203.46875 C 166.691406 203.46875 156.738281 193.523438 156.738281 181.253906 C 156.738281 168.988281 166.691406 159.042969 178.964844 159.042969 Z M 178.964844 159.042969 " fill-opacity="1" fill-rule="nonzero"/></g></svg>