<svg xmlns="http://www.w3.org/2000/svg" xmlns:xlink="http://www.w3.org/1999/xlink" width="500" zoomAndPan="magnify" viewBox="0 0 375 374.999991" height="500" preserveAspectRatio="xMidYMid meet" version="1.0"><defs><clipPath id="fefcada6a8"><path d="M 33.816406 32.167969 L 341.179688 32.167969 L 341.179688 343 L 33.816406 343 Z M 33.816406 32.167969 " clip-rule="nonzero"/></clipPath><clipPath id="616be3a40b"><path d="M 187.5 32.167969 C 102.625 32.167969 33.816406 101.710938 33.816406 187.5 C 33.816406 273.289062 102.625 342.832031 187.5 342.832031 C 272.375 342.832031 341.179688 273.289062 341.179688 187.5 C 341.179688 101.710938 272.375 32.167969 187.5 32.167969 Z M 187.5 32.167969 " clip-rule="nonzero"/></clipPath><clipPath id="d8d56b2c1b"><path d="M 33.816406 32.167969 L 341.316406 32.167969 L 341.316406 342.667969 L 33.816406 342.667969 Z M 33.816406 32.167969 " clip-rule="nonzero"/></clipPath><clipPath id="454fb998e3"><path d="M 187.496094 32.167969 C 102.625 32.167969 33.816406 101.710938 33.816406 187.5 C 33.816406 273.285156 102.625 342.828125 187.496094 342.828125 C 272.371094 342.828125 341.175781 273.285156 341.175781 187.5 C 341.175781 101.710938 272.371094 32.167969 187.496094 32.167969 Z M 187.496094 32.167969 " clip-rule="nonzero"/></clipPath></defs><g clip-path="url(#fefcada6a8)"><g clip-path="url(#616be3a40b)"><path fill="#ffffff" d="M 33.816406 32.167969 L 341.179688 32.167969 L 341.179688 343.132812 L 33.816406 343.132812 Z M 33.816406 32.167969 " fill-opacity="1" fill-rule="nonzero"/></g></g><g clip-path="url(#d8d56b2c1b)"><g clip-path="url(#454fb998e3)"><path stroke-linecap="butt" transform="matrix(0.75, 0, 0, 0.75, 33.818348, 32.166322)" fill="none" stroke-linejoin="miter" d="M 204.903687 0.00219518 C 91.742214 0.00219518 -0.00258937 92.726166 -0.00258937 207.111597 C -0.00258937 321.49182 91.742214 414.215791 204.903687 414.215791 C 318.070369 414.215791 409.809964 321.49182 409.809964 207.111597 C 409.809964 92.726166 318.070369 0.00219518 204.903687 0.00219518 Z M 204.903687 0.00219518 " stroke="#d9d9d9" stroke-width="6" stroke-opacity="1" stroke-miterlimit="4"/></g></g><path fill="#6c4eb0" d="M 154.503906 110.480469 C 162.851562 99.933594 178.570312 94.722656 189.289062 94.457031 C 219.335938 93.878906 231.863281 131.714844 232.828125 146.753906 L 246.738281 150.96875 C 243.535156 104.863281 215.167969 80.675781 188.023438 80.675781 C 162.574219 80.667969 139.070312 99.367188 129.597656 126.785156 C 116.664062 163.335938 125.152344 198.476562 141.011719 226.601562 C 139.628906 228.429688 138.792969 231.652344 139.070312 234.742188 C 139.339844 243.183594 146.433594 250.210938 154.929688 250.210938 L 155.488281 250.210938 C 164.394531 249.929688 171.207031 242.484375 170.789062 233.617188 C 170.789062 225.179688 163.558594 218.167969 155.070312 218.167969 L 154.503906 218.167969 C 153.945312 218.167969 153.121094 218.167969 152.414062 218.4375 C 140.871094 198.757812 135.996094 177.660156 137.816406 154.90625 C 138.921875 137.75 144.492188 122.847656 154.503906 110.480469 Z M 154.503906 110.480469 " fill-opacity="1" fill-rule="nonzero"/><path fill="#6c4eb0" d="M 87.460938 270.050781 C 96.785156 284.105469 115.847656 293.09375 136.710938 293.09375 C 142.273438 293.09375 148.125 292.6875 153.824219 291.273438 C 190.003906 284.246094 217.414062 262.316406 233.136719 229.988281 L 233.265625 229.699219 C 241.335938 228.996094 247.59375 221.816406 247.183594 213.238281 C 246.757812 204.660156 239.800781 197.78125 231.324219 197.78125 L 230.757812 197.78125 C 222 198.070312 215.175781 205.515625 215.453125 214.382812 C 215.734375 218.875 217.554688 222.535156 220.042969 225.199219 C 210.3125 244.324219 195.703125 258.371094 173.578125 270.191406 C 158.691406 278.054688 142.96875 281.015625 127.667969 278.90625 C 114.871094 277.089844 104.863281 271.304688 98.734375 262.039062 C 89.558594 247.972656 88.722656 232.800781 96.367188 217.621094 C 101.945312 206.65625 110.285156 198.644531 115.855469 194.699219 C 114.464844 191.050781 112.792969 184.867188 111.957031 180.234375 C 70.753906 210.027344 74.945312 250.785156 87.460938 270.050781 Z M 87.460938 270.050781 " fill-opacity="1" fill-rule="nonzero"/><path fill="#6c4eb0" d="M 296.695312 263.847656 C 305.035156 246.980469 304.347656 218.585938 283.054688 194.261719 L 282.925781 194.539062 C 261.371094 168.953125 229.644531 154.898438 193.457031 154.898438 L 188.722656 154.898438 C 186.371094 149.699219 180.949219 146.457031 174.820312 146.457031 L 174.402344 146.457031 C 165.644531 146.457031 158.820312 154.0625 159.109375 162.910156 C 159.386719 171.339844 166.480469 178.375 174.96875 178.375 L 175.65625 178.375 C 181.925781 178.097656 187.347656 174.152344 189.566406 168.535156 L 194.71875 168.535156 C 216.160156 168.535156 236.460938 174.859375 254.976562 187.226562 C 269.152344 196.648438 279.320312 209.015625 285.023438 223.777344 C 290.019531 235.867188 289.75 247.675781 284.605469 257.527344 C 276.675781 272.984375 263.3125 281.144531 245.652344 281.144531 C 234.519531 281.144531 223.671875 277.625 218.101562 275.101562 C 214.769531 277.894531 209.195312 282.539062 205.15625 285.359375 C 217.394531 290.96875 229.78125 294.207031 241.742188 294.207031 C 268.875 294.207031 289.035156 278.757812 296.695312 263.847656 Z M 296.695312 263.847656 " fill-opacity="1" fill-rule="nonzero"/></svg>