<svg xmlns="http://www.w3.org/2000/svg" xmlns:xlink="http://www.w3.org/1999/xlink" width="500" zoomAndPan="magnify" viewBox="0 0 375 374.999991" height="500" preserveAspectRatio="xMidYMid meet" version="1.0"><defs><clipPath id="76b0c9b890"><path d="M 33.816406 32.167969 L 341.179688 32.167969 L 341.179688 343 L 33.816406 343 Z M 33.816406 32.167969 " clip-rule="nonzero"/></clipPath><clipPath id="4a73e2ea7e"><path d="M 187.5 32.167969 C 102.625 32.167969 33.816406 101.710938 33.816406 187.5 C 33.816406 273.289062 102.625 342.832031 187.5 342.832031 C 272.375 342.832031 341.179688 273.289062 341.179688 187.5 C 341.179688 101.710938 272.375 32.167969 187.5 32.167969 Z M 187.5 32.167969 " clip-rule="nonzero"/></clipPath><clipPath id="398c3c19c6"><path d="M 33.816406 32.167969 L 341.316406 32.167969 L 341.316406 342.667969 L 33.816406 342.667969 Z M 33.816406 32.167969 " clip-rule="nonzero"/></clipPath><clipPath id="b53c13a08f"><path d="M 187.496094 32.167969 C 102.625 32.167969 33.816406 101.710938 33.816406 187.5 C 33.816406 273.285156 102.625 342.828125 187.496094 342.828125 C 272.371094 342.828125 341.175781 273.285156 341.175781 187.5 C 341.175781 101.710938 272.371094 32.167969 187.496094 32.167969 Z M 187.496094 32.167969 " clip-rule="nonzero"/></clipPath><clipPath id="c603b32388"><path d="M 86.074219 86.074219 L 288.574219 86.074219 L 288.574219 288.574219 L 86.074219 288.574219 Z M 86.074219 86.074219 " clip-rule="nonzero"/></clipPath></defs><g clip-path="url(#76b0c9b890)"><g clip-path="url(#4a73e2ea7e)"><path fill="#ffffff" d="M 33.816406 32.167969 L 341.179688 32.167969 L 341.179688 343.132812 L 33.816406 343.132812 Z M 33.816406 32.167969 " fill-opacity="1" fill-rule="nonzero"/></g></g><g clip-path="url(#398c3c19c6)"><g clip-path="url(#b53c13a08f)"><path stroke-linecap="butt" transform="matrix(0.75, 0, 0, 0.75, 33.818348, 32.166322)" fill="none" stroke-linejoin="miter" d="M 204.903687 0.00219518 C 91.742214 0.00219518 -0.00258937 92.726166 -0.00258937 207.111597 C -0.00258937 321.49182 91.742214 414.215791 204.903687 414.215791 C 318.070369 414.215791 409.809964 321.49182 409.809964 207.111597 C 409.809964 92.726166 318.070369 0.00219518 204.903687 0.00219518 Z M 204.903687 0.00219518 " stroke="#d9d9d9" stroke-width="6" stroke-opacity="1" stroke-miterlimit="4"/></g></g><g clip-path="url(#c603b32388)"><path fill="#007acc" d="M 86.074219 288.574219 L 288.574219 288.574219 L 288.574219 86.074219 L 86.074219 86.074219 Z M 86.074219 288.574219 " fill-opacity="1" fill-rule="nonzero"/></g><path fill="#ffffff" d="M 130.84375 187.988281 L 130.78125 196.285156 L 157.136719 196.285156 L 157.136719 271.179688 L 175.78125 271.179688 L 175.78125 196.285156 L 202.140625 196.285156 L 202.140625 188.15625 C 202.140625 183.652344 202.042969 179.886719 201.914062 179.792969 C 201.820312 179.667969 185.777344 179.601562 166.332031 179.636719 L 130.941406 179.730469 Z M 130.84375 187.988281 " fill-opacity="1" fill-rule="nonzero"/><path fill="#ffffff" d="M 249.472656 179.5 C 254.617188 180.78125 258.539062 183.066406 262.136719 186.792969 C 263.996094 188.789062 266.765625 192.417969 266.988281 193.289062 C 267.050781 193.550781 258.246094 199.457031 252.90625 202.773438 C 252.71875 202.898438 251.949219 202.058594 251.078125 200.777344 C 248.476562 196.980469 245.742188 195.34375 241.5625 195.058594 C 235.425781 194.640625 231.46875 197.851562 231.503906 203.222656 C 231.503906 204.796875 231.730469 205.730469 232.371094 207.011719 C 233.726562 209.8125 236.230469 211.480469 244.101562 214.890625 C 258.601562 221.125 264.804688 225.238281 268.664062 231.089844 C 272.96875 237.617188 273.933594 248.027344 271.003906 255.769531 C 267.792969 264.195312 259.820312 269.914062 248.605469 271.8125 C 245.132812 272.421875 236.90625 272.328125 233.171875 271.652344 C 225.039062 270.207031 217.328125 266.1875 212.574219 260.917969 C 210.707031 258.863281 207.074219 253.492188 207.296875 253.105469 C 207.398438 252.976562 208.230469 252.464844 209.164062 251.917969 C 210.066406 251.402344 213.476562 249.441406 216.6875 247.574219 L 222.5 244.207031 L 223.726562 246 C 225.425781 248.605469 229.160156 252.171875 231.40625 253.367188 C 237.871094 256.765625 246.738281 256.285156 251.113281 252.367188 C 252.976562 250.660156 253.746094 248.894531 253.746094 246.292969 C 253.746094 243.945312 253.460938 242.917969 252.234375 241.152344 C 250.660156 238.898438 247.449219 237 238.320312 233.050781 C 227.871094 228.550781 223.371094 225.75 219.257812 221.3125 C 216.875 218.742188 214.628906 214.628906 213.695312 211.1875 C 212.921875 208.332031 212.730469 201.167969 213.339844 198.269531 C 215.5 188.179688 223.117188 181.136719 234.105469 179.050781 C 237.671875 178.378906 245.96875 178.628906 249.472656 179.5 Z M 249.472656 179.5 " fill-opacity="1" fill-rule="nonzero"/></svg>